<?xml version="1.0" encoding="UTF-8"?>
<svg width="168px" height="82px" viewBox="0 0 168 82" version="1.1" xmlns="http://www.w3.org/2000/svg" xmlns:xlink="http://www.w3.org/1999/xlink">
    <!-- Generator: Sketch 63.1 (92452) - https://sketch.com -->
    <title>ag-logo</title>
    <desc>Created with Sketch.</desc>
    <g id="Design" stroke="none" stroke-width="1" fill="none" fill-rule="evenodd">
        <g id="Mobile" transform="translate(-104.000000, -3019.000000)" fill-rule="nonzero">
            <g id="project-card-ag" transform="translate(31.000000, 2961.000000)">
                <g id="ag-logo" transform="translate(73.000000, 57.924675)">
                    <path d="M162.147541,18.7627119 L168,18.7627119 L168,51.4237288 L147.688525,51.4237288 C144.836562,51.4237288 142.52459,49.1389107 142.52459,46.3204449 L142.52459,32.7116879 C142.52459,29.893222 144.836562,27.608404 147.688525,27.608404 L147.688525,27.608404 L162.147541,27.608404 L162.147541,18.7627119 Z M149.409836,33.3921257 C148.839444,33.3921257 148.377049,33.8490893 148.377049,34.4127825 L148.377049,44.6193503 C148.377049,45.1830434 148.839444,45.6400071 149.409836,45.6400071 L162.147541,45.6400071 L162.147541,33.3921257 L149.409836,33.3921257 Z" id="d" fill="#000000"></path>
                    <g id="i" transform="translate(134.950820, 18.762712)">
                        <polygon id="Path-6" fill="#000000" points="0 8.84569209 5.50819672 8.84569209 5.50819672 32.6610169 0 32.6610169"></polygon>
                        <polygon id="Path-7" fill="#E11F22" points="0 3.8678414e-14 5.50819672 3.8678414e-14 5.50819672 5.78372175 0 5.78372175"></polygon>
                    </g>
                    <path d="M112.229508,52.1186441 L118.081967,52.1186441 L118.081967,34.7457627 L118.081967,34.7457627 C118.081967,34.1700761 118.544362,33.7033898 119.114754,33.7033898 L132.196721,33.7033898 L132.196721,27.7966102 L117.393443,27.7966102 L117.393443,27.7966102 C114.54148,27.7966102 112.229508,30.1300414 112.229508,33.0084746 L112.229508,52.1186441 Z" id="r" fill="#000000"></path>
                    <path d="M110.163934,29.3408663 L110.163934,25.9435028 L110.163934,25.9435028 C110.163934,23.1290348 107.903339,20.8474576 105.114754,20.8474576 L84.9180328,20.8474576 L84.9180328,20.8474576 C82.1294476,20.8474576 79.8688525,23.1290348 79.8688525,25.9435028 L79.8688525,46.3276836 L79.8688525,46.3276836 C79.8688525,49.1421516 82.1294476,51.4237288 84.9180328,51.4237288 L105.114754,51.4237288 L105.114754,51.4237288 C107.903339,51.4237288 110.163934,49.1421516 110.163934,46.3276836 L110.163934,34.0971751 L97.7092896,34.0971751 L97.7092896,39.872693 L104.44153,39.872693 L104.44153,44.6290019 L104.44153,44.6290019 C104.44153,45.1918954 103.989411,45.6482109 103.431694,45.6482109 L86.6010929,45.6482109 L86.6010929,45.6482109 C86.0433759,45.6482109 85.5912568,45.1918954 85.5912568,44.6290019 L85.5912568,27.6421846 L85.5912568,27.6421846 C85.5912568,27.079291 86.0433759,26.6229755 86.6010929,26.6229755 L103.431694,26.6229755 L103.431694,26.6229755 C103.989411,26.6229755 104.44153,27.079291 104.44153,27.6421846 L104.44153,29.3408663 L110.163934,29.3408663 Z" id="G" fill="#000000"></path>
                    <g id="ag" fill="#E11F22">
                        <g id="Combined-Shape">
                            <g id="path-1-link">
                                <path d="M0.208990736,37.0543933 L0.208990736,23.1451476 L0.208990736,23.1451476 C0.208990736,21.3065004 1.18394579,19.6075203 2.76659977,18.6881968 L33.5239201,0.822048823 L33.5239201,0.822048823 C35.106574,-0.0972747672 37.0564842,-0.0972747672 38.6391381,0.822048823 L38.6391381,0.822048823 L69.3964584,18.6881968 L69.3964584,18.6881968 C70.9791123,19.6075203 71.9540674,21.3065004 71.9540674,23.1451476 L71.9540674,47.3472803 L61.7236313,47.3472803 L61.7226222,32.251046 L61.7222782,32.251046 C61.7220882,29.4088789 59.4319826,27.1049486 56.6070601,27.1049486 L41.6037736,27.1046025 C38.7787167,27.1046025 36.4885555,29.4087437 36.4885555,32.251046 L36.4885555,46.6664481 L36.4885555,46.6664481 C36.4885555,49.5087506 38.7787167,51.8128916 41.6037736,51.8128916 L57.2904423,51.8128916 L57.2904423,55.9246862 C57.2904423,56.4931466 56.83241,56.9539749 56.2673987,56.9539749 L40.9217445,56.9539749 L40.9217445,61.4142259 L56.6070601,61.4142259 L56.6070601,61.4134975 C59.4318342,61.4134975 61.7218785,59.1098002 61.7222782,56.2677824 L61.7236313,51.7939976 L71.9540674,51.7939976 L71.9540674,58.8774434 L71.9540674,58.8774434 C71.9540674,60.7160906 70.9791123,62.4150706 69.3964584,63.3343942 L38.6391381,81.2005422 L38.6391381,81.2005422 C37.0564842,82.1198658 35.106574,82.1198658 33.5239201,81.2005422 L2.76659977,63.3343942 L2.76659977,63.3343942 C1.18394579,62.4150706 0.208990736,60.7160906 0.208990736,58.8774434 L0.208990736,41.5146444 L9.20739251,41.5146444 L9.20739251,46.6610879 C9.20739251,49.5033901 11.4975536,51.8075314 14.3226106,51.8075314 L14.3226106,51.8075314 L34.1014538,51.8075314 L34.1014538,32.251046 C34.1014538,29.4087438 31.8112926,27.1046025 28.9862357,27.1046025 L9.20739251,27.1046025 L9.20739251,31.5648536 L28.6452212,31.5648536 C29.2102325,31.5648536 29.6682648,32.0256818 29.6682648,32.5941423 L29.6682648,32.5941423 L29.6682648,37.0543933 L0.208990736,37.0543933 Z" id="path-1"></path>
                            </g>
                        </g>
                        <rect id="g" x="40.9217445" y="31.5648536" width="16.3686978" height="15.7824268" rx="3"></rect>
                        <path d="M13.6405815,41.5146444 L29.6682648,41.5146444 L29.6682648,47.3472803 L14.6636251,47.3472803 L14.6636251,47.3472803 C14.0986137,47.3472803 13.6405815,46.886452 13.6405815,46.3179916 L13.6405815,41.5146444 Z" id="Combined-Shape"></path>
                    </g>
                </g>
            </g>
        </g>
    </g>
</svg>