<?xml version="1.0" encoding="UTF-8"?>
<svg width="674px" height="359px" viewBox="0 0 674 359" version="1.1" xmlns="http://www.w3.org/2000/svg" xmlns:xlink="http://www.w3.org/1999/xlink">
    <!-- Generator: Sketch 63.1 (92452) - https://sketch.com -->
    <title>computer-image</title>
    <desc>Created with Sketch.</desc>
    <defs>
        <linearGradient x1="49.9918241%" y1="100%" x2="49.9918241%" y2="-0.0776833077%" id="linearGradient-1">
            <stop stop-color="#808080" stop-opacity="0.25" offset="0%"></stop>
            <stop stop-color="#808080" stop-opacity="0.12" offset="54%"></stop>
            <stop stop-color="#808080" stop-opacity="0.1" offset="100%"></stop>
        </linearGradient>
    </defs>
    <g id="Design" stroke="none" stroke-width="1" fill="none" fill-rule="evenodd">
        <g id="Desktop-HD-About" transform="translate(-650.000000, -721.000000)">
            <g id="computer-image" transform="translate(650.000000, 721.000000)">
                <path d="M622.34201,283.137161 C621.591162,284.752595 620.842472,286.34649 620.09594,287.918845 C618.930832,290.361381 617.780827,292.756531 616.645926,295.104295 C616.141045,296.144635 615.636165,297.165589 615.144231,298.186543 C609.577603,309.539813 604.379926,319.58135 599.965461,327.839448 C591.806494,343.080426 575.971967,352.667428 558.662379,352.846365 L460.50202,353.912551 L459.466369,353.912551 L451.051699,354.003016 L443.85392,354.080557 L421.781594,354.319641 L420.888344,354.319641 L409.651524,354.442414 L409.308464,354.442414 L340.04926,355.191975 L278.227329,355.838149 L271.036023,355.91569 L226.373545,356.40032 L226.321763,356.40032 L197.35588,356.710483 L197.045185,356.710483 L105.454742,357.699129 L78.0552827,357.996368 C72.2081847,358.062314 66.3857305,357.22978 60.7922642,355.527985 C51.0584966,352.592724 42.3106745,347.063491 35.4899997,339.53519 C23.7224078,326.592333 15.1459175,311.491257 9.38510518,295.104295 C8.55226864,292.7393 7.7755299,290.34415 7.05488895,287.918845 C-12.8878782,220.619869 11.4240444,133.793527 55.1803268,75.6895999 C57.0142932,73.2599873 58.8784662,70.8906843 60.7728457,68.5816907 L60.8181555,68.5299969 C74.2751542,52.0396475 89.3633042,38.2632271 105.435323,28.4672359 C133.915744,11.0787053 165.470755,6.18070965 196.507941,20.7777705 C222.768183,33.132609 247.287236,38.9417094 271.055441,40.5183728 C273.456859,40.6734545 275.858276,40.7897657 278.246747,40.8608448 C332.767334,42.5732048 383.863798,22.9618371 443.866866,10.303297 C446.255337,9.79928161 448.650282,9.30172797 451.064645,8.83002126 C493.869422,0.32637716 541.35405,-4.15806738 597.822957,5.26960493 C603.689653,6.22636985 609.478733,7.6085316 615.144231,9.40511574 C617.63411,10.206371 620.03337,11.0679357 622.34201,11.98981 C649.294844,22.9359902 663.994625,43.1612227 670.240899,68.5041499 C670.832083,70.8562217 671.343436,73.2492178 671.774958,75.6831382 C682.849958,136.643152 650.414642,223.114099 622.34201,283.137161 Z" id="Path" fill="#FFFFFF" fill-rule="nonzero" opacity="0.1"></path>
                <g id="Group" opacity="0.1" transform="translate(6.000000, 8.000000)" fill="#FFFFFF" fill-rule="nonzero">
                    <path d="M98.9090467,20.1339299 L98.9090467,350.164594 L71.5263132,350.462491 C65.6827845,350.528582 59.8638846,349.694209 54.2738327,347.988653 L54.2738327,60.2852214 L54.3191148,60.2852214 C67.7678988,43.7390037 82.8468385,29.9321402 98.9090467,20.1339299 Z" id="Path"></path>
                    <path d="M664.935311,67.4606458 L48.6847276,67.4606458 C50.5175746,65.0256642 52.3806096,62.6511255 54.2738327,60.3370295 L54.2738327,60.2852214 L663.402189,60.2852214 C663.993012,62.6295387 664.504053,65.0213469 664.935311,67.4606458 Z" id="Path"></path>
                    <path d="M615.500195,3.62656827 L615.500195,280.152399 L613.255496,280.152399 C612.091099,282.600332 610.941796,285.000775 609.807588,287.353727 C609.303016,288.396365 608.798444,289.419576 608.306809,290.442786 L608.306809,1.0102583 C610.795169,1.81328413 613.192964,2.68538745 615.500195,3.62656827 Z" id="Path"></path>
                    <path d="M444.327383,0.433892989 L444.327383,346.414982 L437.133998,346.492694 L437.133998,1.91042435 C439.521012,1.4052952 441.914494,0.906642066 444.327383,0.433892989 Z" id="Path"></path>
                    <path d="M271.614981,32.5354982 L271.614981,348.293026 L264.428064,348.370738 L264.428064,32.1922694 C266.828016,32.3476937 269.227967,32.4383579 271.614981,32.5354982 Z" id="Path"></path>
                    <path d="M613.255496,280.158875 C612.091099,282.606808 610.941796,285.007251 609.807588,287.360203 L2.91746109,287.360203 C2.08513294,284.989982 1.30886835,282.589539 0.588667315,280.158875 L613.255496,280.158875 Z" id="Path"></path>
                </g>
                <rect id="Rectangle" fill="#3F3D56" fill-rule="nonzero" x="137" y="172" width="12" height="37"></rect>
                <rect id="Rectangle" fill="#3F3D56" fill-rule="nonzero" x="468" y="170" width="12" height="39"></rect>
                <polygon id="Path" fill="#65617D" fill-rule="nonzero" points="558 345.216495 558 353.525773 459.663408 354.420619 458.614795 354.439794 421.240159 354.778557 420.346896 354.79134 408.986922 354.887216 408.65033 354.887216 339.403038 355.52 225.7321 356.561856 225.635007 356.561856 196.733421 356.830309 196.422721 356.836701 68 358 68 348.412371 98.1961691 330.515464 158.782695 330.016907 160.077279 330.010515 160.504491 330.004124 161.799075 329.984948 190.888375 329.748454 192.189432 329.742062 192.603699 329.73567 193.898283 329.729278 203.22576 329.652577 203.471731 329.646186 226.482959 329.454433 226.670674 329.454433 406.229458 327.958763 410.624571 327.926804 411.064729 327.926804 414.417701 327.894845 438.788243 327.696701 440.082827 327.677526 441.280317 327.664742 441.901717 327.664742 449.481506 327.607216 450.983223 327.588041 452.996301 327.575258 459.307398 327.517732 469.321004 327.434639 470.615588 327.421856 472.868164 327.409072 473.288904 327.409072 521.648085 327"></polygon>
                <polygon id="Path" fill="#000000" fill-rule="nonzero" opacity="0.2" points="558 345.216495 558 353.525773 459.663408 354.420619 458.614795 354.439794 421.240159 354.778557 420.346896 354.79134 408.986922 354.887216 408.65033 354.887216 339.403038 355.52 225.7321 356.561856 225.635007 356.561856 196.733421 356.830309 196.422721 356.836701 68 358 68 348.412371 98.1961691 330.515464 158.782695 330.016907 160.077279 330.010515 160.504491 330.004124 161.799075 329.984948 190.888375 329.748454 192.189432 329.742062 192.603699 329.73567 193.898283 329.729278 203.22576 329.652577 203.471731 329.646186 226.482959 329.454433 226.670674 329.454433 406.229458 327.958763 410.624571 327.926804 411.064729 327.926804 414.417701 327.894845 438.788243 327.696701 440.082827 327.677526 441.280317 327.664742 441.901717 327.664742 449.481506 327.607216 450.983223 327.588041 452.996301 327.575258 459.307398 327.517732 469.321004 327.434639 470.615588 327.421856 472.868164 327.409072 473.288904 327.409072 521.648085 327"></polygon>
                <path d="M192,313 L192,328.612785 C192.000724,330.122182 191.105317,331.49704 189.699809,332.144628 C189.18707,332.385793 188.626538,332.516292 188.056816,332.527138 L165.120629,332.9989 C164.508081,333.013152 163.900537,332.888733 163.346197,332.635516 C161.915159,331.999244 160.998316,330.611601 161,329.084547 L161,313 L192,313 Z" id="Path" fill="#3F3D56" fill-rule="nonzero"></path>
                <path d="M192,313 L192,328.612785 C192.000724,330.122182 191.105317,331.49704 189.699809,332.144628 C189.18707,332.385793 188.626538,332.516292 188.056816,332.527138 L165.120629,332.9989 C164.508081,333.013152 163.900537,332.888733 163.346197,332.635516 C161.915159,331.999244 160.998316,330.611601 161,329.084547 L161,313 L192,313 Z" id="Path" fill="#000000" fill-rule="nonzero" opacity="0.1"></path>
                <path d="M193,313 L193,328.612785 C193.000724,330.122182 192.105317,331.49704 190.699809,332.144628 C190.18707,332.385793 189.626538,332.516292 189.056816,332.527138 L166.120629,332.9989 C165.508081,333.013152 164.900537,332.888733 164.346197,332.635516 C162.915159,331.999244 161.998316,330.611601 162,329.084547 L162,313 L193,313 Z" id="Path" fill="#3F3D56" fill-rule="nonzero"></path>
                <rect id="Rectangle" fill="#3F3D56" fill-rule="nonzero" x="440" y="313" width="31" height="20"></rect>
                <rect id="Rectangle" fill="#000000" fill-rule="nonzero" opacity="0.1" x="440" y="313" width="31" height="20"></rect>
                <rect id="Rectangle" fill="#3F3D56" fill-rule="nonzero" x="439" y="313" width="31" height="20"></rect>
                <polygon id="Path" fill="#000000" fill-rule="nonzero" opacity="0.1" points="149 172 149 176 137 175.657941 137 172"></polygon>
                <path d="M229.972933,67.2268006 L215.187066,173.592858 C214.992969,174.999535 213.774387,176.035549 212.356833,176 L93.9662719,172.924827 L91.7189238,172.866456 C90.9275453,172.847671 90.1815438,172.492511 89.6673955,171.889754 C89.1532471,171.286997 88.9195412,170.493606 89.0246966,169.707903 L105.623986,58.3608006 C105.845809,56.9309972 107.122734,55.908565 108.56432,56.0064787 L227.38233,64.0617618 C228.157355,64.1067461 228.878239,64.4743928 229.370373,65.0756518 C229.862507,65.6769108 230.081001,66.4569389 229.972933,67.2268006 L229.972933,67.2268006 Z" id="Path" fill="#65617D" fill-rule="nonzero"></path>
                <polygon id="Path" fill="#FFFFFF" fill-rule="nonzero" points="113.500053 64 101 161.563705 209.639881 165 223 70.8725903"></polygon>
                <rect id="Rectangle" fill="#65617D" fill-rule="nonzero" x="249" y="63" width="132" height="112" rx="5.33"></rect>
                <rect id="Rectangle" fill="#FFFFFF" fill-rule="nonzero" x="255" y="70" width="120" height="93"></rect>
                <polygon id="Path" fill="#000000" fill-rule="nonzero" opacity="0.1" points="480 170 480 172.720096 468 173 468 170"></polygon>
                <path d="M534.995769,167.383763 C535.031039,167.924236 534.844639,168.455729 534.479653,168.855396 C534.114667,169.255062 533.602686,169.488308 533.062047,169.501223 L412.397755,172 C411.358035,172.021083 410.477933,171.235374 410.380238,170.198436 L400.009039,62.2079499 C399.957296,61.666523 400.129264,61.1275017 400.484888,60.7164412 C400.840511,60.3053806 401.348741,60.0581685 401.891196,60.0323883 L521.640192,54.0673471 L522.92934,54.0027904 C523.994538,53.9465823 524.912534,54.7460695 525.004869,55.8103786 L534.995769,167.383763 Z" id="Path" fill="#65617D" fill-rule="nonzero"></path>
                <polygon id="Path" fill="#FFFFFF" fill-rule="nonzero" points="407 66.3996154 516.732228 61 526 159.410256 417.134402 162"></polygon>
                <path d="M534.995883,167.873396 C535.030203,168.416202 534.848824,168.949991 534.493667,169.351383 C534.138511,169.752775 533.640318,169.987029 533.11424,170 L522,54.067638 L523.254429,54.0028025 C524.290939,53.9463517 525.184212,54.7492913 525.274059,55.8181965 L534.995883,167.873396 Z" id="Path" fill="#000000" fill-rule="nonzero" opacity="0.1"></path>
                <path d="M109,56.0077993 L94.0718294,173 L91.7767142,172.941595 C90.9685151,172.9228 90.2066574,172.567435 89.6815809,171.96433 C89.1565044,171.361226 88.917831,170.567378 89.0252215,169.781222 L105.977327,58.3699671 C106.201292,56.9287694 107.518232,55.8996035 109,56.0077993 L109,56.0077993 Z" id="Path" fill="#000000" fill-rule="nonzero" opacity="0.1"></path>
                <rect id="Rectangle" fill="#000000" fill-rule="nonzero" opacity="0.1" x="137" y="198" width="12" height="11"></rect>
                <polygon id="Path" fill="#000000" fill-rule="nonzero" opacity="0.1" points="193 313 193 316.191011 162 317 162 313"></polygon>
                <path d="M247,202.550497 L247,311.156457 C246.983729,312.533377 245.888541,313.655411 244.510526,313.706954 L120.586466,317 L120.554135,317 C119.15081,316.98259 118.017435,315.850829 118,314.449503 L118,202.550497 C118.017435,201.149171 119.15081,200.01741 120.554135,200 L244.445865,200 C245.84919,200.01741 246.982565,201.149171 247,202.550497 Z" id="Path" fill="#65617D" fill-rule="nonzero"></path>
                <path d="M120,200 L120,317 L119.9625,317 C118.334806,316.98259 117.020222,315.850829 117,314.449503 L117,202.550497 C117.020222,201.149171 118.334806,200.01741 119.9625,200 L120,200 Z" id="Path" fill="#000000" fill-rule="nonzero" opacity="0.1"></path>
                <polygon id="Path" fill="#D4DFEC" fill-rule="nonzero" points="126 207 241 207 241 302.425287 126 305"></polygon>
                <rect id="Rectangle" fill="#000000" fill-rule="nonzero" opacity="0.1" x="468" y="198" width="12" height="11"></rect>
                <polygon id="Path" fill="#000000" fill-rule="nonzero" opacity="0.1" points="470 313 470 317 439 316.213729 439 313"></polygon>
                <path d="M510,202.550497 L510,314.449503 C509.982304,315.86331 508.829703,317 507.414052,317 L507.414052,317 L383.488975,313.706954 C382.111236,313.655411 381.016268,312.533377 381,311.156457 L381,202.550497 C381.017431,201.149171 382.15058,200.01741 383.553623,200 L507.420517,200 C508.833649,200.003418 509.98234,201.139201 510,202.550497 Z" id="Path" fill="#65617D" fill-rule="nonzero"></path>
                <path d="M510,202.550497 L510,314.449503 C509.979471,315.86331 508.642319,317 507,317 L507,317 L507,200 L507,200 C508.642319,200 509.979471,201.13669 510,202.550497 Z" id="Path" fill="#000000" fill-rule="nonzero" opacity="0.1"></path>
                <polygon id="Path" fill="#D4DFEC" fill-rule="nonzero" points="502 207 387 207 387 302.425287 502 305"></polygon>
                <path d="M378,202.550497 L378,311.156457 C377.983729,312.533377 376.888541,313.655411 375.510526,313.706954 L251.586466,317 L251.586466,317 C250.170532,317 249.017699,315.86331 249,314.449503 L249,202.550497 C249.017435,201.149171 250.15081,200.01741 251.554135,200 L375.445865,200 C376.84919,200.01741 377.982565,201.149171 378,202.550497 Z" id="Path" fill="#65617D" fill-rule="nonzero"></path>
                <polygon id="Path" fill="#D4DFEC" fill-rule="nonzero" points="257 207 372 207 372 302.425287 257 305"></polygon>
                <polygon id="Path" fill="#000000" fill-rule="nonzero" opacity="0.1" points="558 345 558 353.45 459.663408 354.36 458.614795 354.3795 421.240159 354.724 420.346896 354.737 408.986922 354.8345 408.65033 354.8345 339.403038 355.478 225.7321 356.5375 225.635007 356.5375 196.733421 356.8105 196.422721 356.817 68 358 68 348.25 199.083091 347.3855 199.393791 347.3855 225.926288 347.2035 226.049273 347.2035 409.284676 345.988 409.472391 345.988 409.582431 345.9815 409.886658 345.9815 412.987186 345.962 413.932232 345.962 462.149009 345.637 464.997094 345.624 465.63144 345.6175"></polygon>
                <circle id="Oval" fill="#FBBEBE" fill-rule="nonzero" cx="315" cy="176" r="33"></circle>
                <path d="M197,356.773749 C197,356.702641 197.038824,356.62507 197.064706,356.547498 C197.711766,354.226808 198.863533,350.302968 199.724123,347.167775 C199.834124,346.779916 199.937653,346.398521 200.034712,346.03652 C200.985891,342.500539 202.836483,334.219749 203.865309,329.054761 C204.227662,327.238288 204.512369,325.822603 204.570604,325.111528 C204.700016,324.019058 206.647668,319.345358 208.854143,313.973511 C210.400617,310.19835 212.089444,306.074116 213.325329,302.596314 C214.134341,300.53054 214.768525,298.400626 215.221215,296.228963 C215.318221,295.775112 215.318221,295.305914 215.221215,294.852063 C215.02696,294.113121 214.922676,293.353459 214.910626,292.589553 L214.910626,292.589553 C214.761802,288.581677 215.958864,282.246647 217.809456,279.589813 C220.074167,276.357654 221.691817,264.29524 221.691817,264.29524 C221.691817,264.29524 225.043589,264.780064 225.574178,262.013337 C225.630246,261.715124 225.651956,261.411479 225.638884,261.108332 C225.637516,260.868032 225.618049,260.628175 225.580649,260.390793 C225.004765,256.35706 235.105375,252.064754 240.786564,251.140357 C241.42804,251.030529 242.077003,250.970018 242.727744,250.959356 C244.107775,250.809251 245.465224,250.496798 246.77187,250.028494 C247.375793,249.843184 248.022853,249.627707 248.713051,249.382063 C251.094233,248.580487 253.941297,247.52034 256.963069,246.356763 C268.325446,241.954563 282.081945,236.013857 282.081945,236.013857 C282.179004,235.55489 282.289005,235.115317 282.411946,234.682207 C283.790181,229.154707 287.717875,224.611648 292.99138,222.445257 L292.99138,222.445257 C292.99138,222.018612 292.99138,221.585503 292.99138,221.152393 C292.99138,218.922204 292.894321,216.627372 292.797262,214.339004 C292.797262,213.892966 292.758439,213.446928 292.732556,213.000891 C292.732556,212.871604 292.732556,212.735854 292.732556,212.606567 C292.732556,212.477281 292.732556,212.380316 292.732556,212.270423 C292.732556,211.817921 292.687262,211.365419 292.66138,210.919381 L292.544909,210.82888 C291.55082,210.078775 290.696616,209.159757 290.021374,208.113868 C289.645477,207.502709 289.337382,206.852437 289.102549,206.174573 C288.293723,203.983169 288.106076,201.539658 287.562545,199.225433 L287.446074,198.747073 C286.738119,196.411818 285.873413,194.126891 284.857834,191.907827 C283.427831,188.404167 282.327828,184.797079 281.234297,181.14474 C280.569981,178.933944 279.899196,176.718838 279.221939,174.499423 L278.199584,171.112121 C278.005466,170.46569 277.811348,169.819258 277.662524,169.172826 L277.662524,169.172826 C277.590273,168.874384 277.534114,168.572281 277.494289,168.267822 C277.312704,167.275967 277.365886,166.255428 277.649583,165.287772 C277.901038,164.627228 278.186116,163.979952 278.503702,163.348477 C278.639127,163.061837 278.747442,162.76318 278.827233,162.456402 L278.827233,162.456402 C278.848272,162.38845 278.865553,162.319393 278.878997,162.249544 C278.925098,162.01965 278.948934,161.785856 278.950174,161.551397 C278.927777,160.703628 278.814983,159.860659 278.613703,159.036778 C278.60972,159.026372 278.60972,159.014863 278.613703,159.004457 C278.606052,158.945742 278.595252,158.887479 278.58135,158.82992 C278.465372,158.188661 278.387588,157.541091 278.348408,156.890625 C278.120775,153.390384 278.899836,149.898108 280.593707,146.825685 L280.716648,146.59297 C281.073404,145.968365 281.471136,145.368027 281.907239,144.79589 L281.907239,144.79589 C282.107828,144.524388 282.314887,144.265816 282.554299,144.007243 C281.648415,144.873461 280.160177,144.492067 279.318998,143.561205 C279.179942,143.415604 279.060322,143.252644 278.963115,143.076382 C278.907118,142.982814 278.8574,142.885636 278.814291,142.785487 C278.781938,142.707915 278.756056,142.623879 278.730174,142.539843 C278.277231,140.956086 279.066645,139.268899 280.101941,137.9825 C281.121812,136.729481 282.385282,135.695938 283.816067,134.944272 L283.816067,134.944272 C283.8996,134.893986 283.986024,134.848657 284.074891,134.808521 C284.624289,134.533165 285.195674,134.303968 285.78313,134.123303 L285.78313,134.123303 C286.129099,134.008865 286.481221,133.913906 286.837838,133.838874 L284.437245,133.619087 L283.466654,133.528586 C284.455019,129.611597 287.845622,126.768863 291.878437,126.476017 L292.577262,126.476017 C292.917392,126.481255 293.256786,126.50933 293.593146,126.560053 C292.491381,126.077678 291.807081,124.960643 291.878437,123.761004 C293.572757,125.086083 295.673673,125.784947 297.82492,125.739085 L298.070803,125.739085 C297.95885,125.039022 297.885406,124.333352 297.850802,123.625254 L297.850802,123.625254 C297.786096,122.665313 297.786096,121.70211 297.850802,120.742169 C299.024433,121.854178 300.631111,122.389217 302.237871,122.203104 L300.891985,120.328453 C302.091459,121.284498 303.605759,121.757257 305.1367,121.653637 L305.447289,121.621316 C305.707776,121.59409 305.965409,121.544344 306.217291,121.472637 L306.275526,121.472637 C306.152585,121.317493 306.042585,121.155885 305.932584,120.987813 L305.893761,120.910241 C305.624655,120.487428 305.407409,120.033826 305.2467,119.559199 C305.182132,119.375499 305.130246,119.187594 305.091406,118.996803 L305.091406,118.996803 C304.809211,117.821534 304.911255,116.586863 305.382583,115.473751 C307.472588,117.219116 309.763181,119.604449 312.500245,117.800905 C315.23731,115.997361 315.327898,112.687631 319.617907,113.023775 C322.019141,113.250085 324.105587,114.766927 325.059684,116.979937 C326.300324,115.579167 328.296607,115.124135 330.022635,115.848681 C331.719344,116.652184 332.725168,118.436563 332.533229,120.302595 C334.312645,119.856557 336.227943,119.416984 337.936182,120.089273 C339.644421,120.761562 340.744423,122.940036 339.773833,124.394507 C339.747381,124.440104 339.717074,124.483357 339.683244,124.523794 C338.88736,125.55162 337.127356,126.114016 337.315004,127.406879 L337.586769,127.600808 L338.427947,128.208454 C341.727954,130.587322 344.941687,133.086858 348.069144,135.707061 C349.673854,137.051639 351.382093,138.667718 351.492093,140.768621 C351.511382,141.284015 351.459121,141.799595 351.336798,142.300664 L351.336798,142.300664 C351.233269,142.80488 351.090915,143.309097 350.980915,143.813314 C350.70415,145.097548 350.629921,146.417097 350.760915,147.724225 L350.760915,147.724225 C350.806209,148.10562 350.864444,148.48055 350.935621,148.861945 C351.925623,153.858861 355.924455,157.983095 356.319162,163.08344 L356.319162,163.445442 C356.342971,163.990982 356.327835,164.537524 356.273868,165.080914 C355.97622,168.183786 354.539746,171.163836 353.375038,174.130957 C353.303861,174.311958 353.232685,174.492959 353.167979,174.673959 C350.92268,180.491844 349.628559,186.691123 348.638557,192.877474 C348.319181,195.072329 347.887239,197.249358 347.344437,199.399969 C346.754107,201.861249 345.629763,204.162922 344.050901,206.142251 C343.420004,206.886556 342.688242,207.53928 341.876778,208.081546 C341.330623,208.430855 340.7572,208.735662 340.162069,208.993015 C340.162069,208.993015 340.162069,208.993015 340.162069,209.0318 C340.233245,209.426124 340.291481,209.820447 340.362657,210.21477 C340.401481,210.421628 340.433834,210.628487 340.472658,210.861202 L340.472658,210.861202 C340.469852,210.873979 340.469852,210.887211 340.472658,210.899988 C341.016188,213.957609 341.637366,216.950588 342.290897,219.794887 L342.620897,221.210572 C350.773856,224.151836 351.737976,230.176579 351.796211,232.48434 C351.819119,232.792047 351.819119,233.10103 351.796211,233.408737 C351.796211,233.408737 364.090355,233.731953 368.943306,237.287327 C369.85028,237.902403 370.830619,238.401869 371.861548,238.77412 C373.818526,239.512776 375.817034,240.136568 377.846855,240.642307 C378.888622,240.913808 379.975683,241.178845 381.082156,241.437418 C383.023336,241.883456 385.080988,242.316565 387.067462,242.730281 C392.366885,243.796893 397.35572,244.669576 399.885725,245.316008 C405.922797,246.841586 419.731061,260.067577 419.731061,260.067577 C419.731061,260.067577 421.348712,273.409926 422.966362,275.355685 C424.584013,277.301445 427.495784,284.140691 427.495784,284.140691 L438.198159,303.152245 L442.727581,311.148605 L445.639352,311.148605 C446.040529,311.148605 446.829942,311.717464 447.716415,312.506111 C448.486416,313.191329 449.340536,314.044618 450.091126,314.820336 L451.333481,316.145521 L452.109954,317.005275 C452.109954,317.005275 456.814081,317.121633 458.08879,320.838615 C461.919386,320.728721 466.623514,320.98083 469.91705,322.454694 C470.366477,322.652339 470.799249,322.885808 471.211171,323.15284 C472.57699,323.943129 473.54692,325.271087 473.883529,326.811643 C473.949352,327.11796 473.988324,327.429426 474,327.742505 C474,328.110971 474,328.479437 474,328.841438 C473.767058,333.734926 470.577052,337.807445 467.645869,340.548315 L467.852928,340.916781 C467.852928,340.916781 467.755869,341.149496 467.568222,341.563213 C467.516457,341.686035 467.451751,341.821785 467.380574,341.976929 L467.380574,341.976929 C466.998809,342.791433 466.390572,344.013189 465.594688,345.441803 C463.905912,348.534048 461.824587,351.395535 459.402322,353.955307 L459.214674,354.149237 L421.853419,354.491845 L421.743418,354.362559 L414.496344,345.726232 L410.892219,341.433926 L410.782219,341.298176 L410.678689,342.326002 L410.329277,345.75209 L409.488098,354.032879 L409.442804,354.446595 L409.442804,354.556488 L409.345745,355.513207 L409.416922,354.556488 L409.229274,354.556488 L339.993833,355.20292 L226.357121,356.456997 L226.357121,357 L226.266533,357 L226.266533,356.456997 L197.310589,356.767285 L197,356.773749 Z" id="Path" fill="url(#linearGradient-1)" fill-rule="nonzero"></path>
                <path d="M349,244.532638 C349,244.532638 284.232374,252.334203 290.416218,244.532638 C292.65542,241.711071 293.273805,233.350393 293.150128,223.825982 C293.111072,220.932902 293.006923,217.9358 292.857209,214.951701 C292.141185,200.648831 290.416218,186.671026 290.416218,186.671026 C290.416218,186.671026 347.047207,160.015677 340.537898,181.144917 C337.934174,189.68113 338.786894,201.669536 340.765724,212.923294 C341.345052,216.206453 342.015511,219.424599 342.718517,222.480212 C344.434203,229.933261 346.530774,237.293702 349,244.532638 L349,244.532638 Z" id="Path" fill="#FBBEBE" fill-rule="nonzero"></path>
                <path d="M349,243.540868 C349,243.540868 284.232374,251.323915 290.416218,243.540868 C292.65542,240.725999 293.273805,232.385167 293.150128,222.883363 C303.02475,218.680518 315.587716,221.813194 315.587716,221.813194 C328.814632,219.186416 337.296262,219.6988 342.718517,221.540788 C344.434203,228.976146 346.530774,236.319115 349,243.540868 L349,243.540868 Z" id="Path" fill="#000000" fill-rule="nonzero" opacity="0.1"></path>
                <path d="M226.035278,358 L226.035278,357.455222 L339.577372,356.2165 L408.755165,355.567954 L408.949122,355.567954 L408.878004,356.527802 L408.974982,355.567954 L409.097822,355.567954 L409.097822,355.457701 L409.983556,346.734764 L410.319747,343.433667 L410.42319,342.40248 L410.513703,341.539914 L414.509206,328.173391 L418.504708,314.826323 L421.86662,303.587029 L427,286.413543 C427,286.413543 424.090654,279.603815 422.47435,277.658179 C420.858046,275.712542 419.241743,262.417358 419.241743,262.417358 C419.241743,262.417358 405.444975,249.232428 399.41293,247.714831 C396.885032,247.066285 391.893886,246.20372 386.59241,245.120649 C384.60759,244.718551 382.571047,244.290511 380.612087,243.823558 C379.506535,243.570625 378.420379,243.304721 377.37948,243.038818 C375.353586,242.531209 373.357117,241.91199 371.399157,241.183977 C370.372593,240.809866 369.395545,240.3111 368.48981,239.698808 C363.737878,236.203148 351.828953,235.807535 351.369923,235.807535 L351.369923,235.807535 C351.368663,235.792429 351.368663,235.777243 351.369923,235.762137 L351.369923,235.703768 C351.386612,235.431636 351.386612,235.158732 351.369923,234.8866 C351.369923,234.627182 351.369923,234.322366 351.311736,233.978636 C351.311736,233.874869 351.311736,233.764616 351.266479,233.654364 C351.234153,233.420887 351.195362,233.17444 351.137175,232.915022 C351.117545,232.799119 351.091646,232.684374 351.059592,232.571293 C350.872235,231.78983 350.60128,231.030954 350.251441,230.307869 C350.206184,230.204101 350.147997,230.093849 350.096275,229.990081 C349.779308,229.390984 349.411593,228.820325 348.997189,228.284407 C348.913141,228.174154 348.822628,228.057416 348.72565,227.947163 C348.19605,227.320735 347.607112,226.747329 346.967112,226.235003 C346.792551,226.098808 346.611525,225.956128 346.424034,225.826419 C346.319439,225.741303 346.209285,225.663304 346.094308,225.592943 L345.518904,225.216786 L344.982291,224.905484 C344.51033,224.646066 344.012509,224.393133 343.469431,224.153172 C343.301335,224.075346 343.120309,224.004006 342.939283,223.932666 C342.758257,223.861326 342.473788,223.751073 342.234575,223.660277 L342.195784,223.660277 L341.710892,223.465713 C341.342375,223.34249 340.967393,223.232237 340.573015,223.121984 L339.97175,222.966333 L339.325228,222.817168 L338.678707,222.680973 C338.032186,222.551264 337.340408,222.434526 336.616304,222.343729 L335.879269,222.252933 L335.122839,222.175108 L334.340548,222.110253 L333.228531,222.045399 L331.935488,222 C326.232695,222 320.545946,222.606013 314.970766,223.809442 C311.097686,222.9449 307.130601,222.578768 303.165285,222.719886 L302.602811,222.719886 L301.95629,222.758799 L301.542516,222.758799 L300.708503,222.836624 C300.430499,222.836624 300.14603,222.894993 299.868025,222.933906 C299.590021,222.972819 299.299086,223.005246 299.021082,223.050644 L298.594378,223.121984 C298.174139,223.193324 297.747435,223.27115 297.301335,223.361946 C297.1591,223.387888 297.016866,223.420315 296.874631,223.459228 C296.312157,223.582451 295.749684,223.731617 295.193675,223.900239 C294.915671,223.978064 294.637667,224.068861 294.359663,224.166142 C294.217428,224.205055 294.081658,224.256939 293.945889,224.308822 L293.532115,224.457988 L293.124807,224.620124 L292.639916,224.814688 C292.394238,224.918455 292.155025,225.028708 291.915812,225.145446 C291.780042,225.203815 291.644273,225.26867 291.514968,225.34001 C291.385664,225.41135 291.249895,225.469719 291.127056,225.541059 C289.665232,226.298768 288.314268,227.254604 287.112157,228.381688 L286.782431,228.699476 L286.459171,229.030234 C286.349262,229.140487 286.245819,229.257225 286.142375,229.373963 C285.721032,229.836 285.328084,230.323308 284.965706,230.833191 C284.862263,230.969385 284.765285,231.10558 284.668306,231.24826 C284.258017,231.855243 283.886596,232.487769 283.55629,233.142013 C283.472242,233.297664 283.394659,233.4598 283.317077,233.615451 C282.789489,234.711094 282.356878,235.850252 282.024034,237.020315 C281.90335,237.452679 281.793441,237.885042 281.694308,238.317406 C281.694308,238.317406 268.007449,244.374821 256.654533,248.758989 C253.635278,249.926371 250.790583,250.983501 248.411384,251.781212 C247.719606,252.014688 247.073085,252.228708 246.47182,252.429757 C245.167202,252.902799 243.810496,253.216363 242.431061,253.363663 C241.780862,253.37436 241.132439,253.435069 240.491497,253.545255 C235.274069,254.39485 226.332677,258.085074 225.35643,261.788269 C225.277169,262.083987 225.255221,262.392216 225.291778,262.696233 C225.291778,262.696233 225.291778,262.741631 225.291778,262.767573 C225.938299,267.307392 221.412649,266.658846 221.412649,266.658846 C221.412649,266.658846 219.796346,278.656939 217.533521,281.899666 C215.897822,284.23443 214.779339,289.442251 214.637105,293.372437 L214.637105,293.372437 C214.555816,294.596934 214.651633,295.826787 214.921574,297.023748 C214.921574,297.056176 214.921574,297.088603 214.921574,297.114545 C215.180183,297.983596 214.559522,300.357272 213.505692,303.398951 C212.361349,306.738961 210.693324,310.889652 209.089951,314.806867 C206.671961,320.721602 204.396205,326.091559 204.25397,327.271912 C204.195784,327.797234 204.027688,328.737625 203.79494,329.950405 C202.851019,334.892322 200.75629,344.302718 199.721855,348.109681 C198.952495,350.95031 197.834013,354.841583 197.064652,357.513591 C197.064652,357.591416 197.019396,357.669242 197,357.740582 L225.983556,357.455222 L225.983556,358 L226.074069,358 L226.035278,358 Z" id="Path" fill="#FFFFFF" fill-rule="nonzero"></path>
                <path d="M237,281 C237,281 273.774194,300.076774 287,297.813428 L237,281 Z" id="Path" fill="#000000" fill-rule="nonzero" opacity="0.1"></path>
                <path d="M312,274 C312,274 347.574,285.309824 359.432,286.880633 C371.29,288.451441 312,274 312,274 Z" id="Path" fill="#000000" fill-rule="nonzero" opacity="0.1"></path>
                <path d="M351,235.446425 C332.333955,238.790148 297.190299,238.070057 282,237.562864 C287.567631,218.151741 314.717071,224.751523 314.717071,224.751523 C348.322388,218.226881 350.897015,231.764573 351,235.446425 Z" id="Path" fill="#000000" fill-rule="nonzero" opacity="0.1"></path>
                <path d="M351,234.446425 C332.333955,237.790148 297.190299,237.070057 282,236.562864 C287.567631,217.151741 314.717071,223.751523 314.717071,223.751523 C348.322388,217.226881 350.897015,230.764573 351,234.446425 Z" id="Path" fill="#FFFFFF" fill-rule="nonzero"></path>
                <path d="M451,323.566808 C451,323.566808 473.545809,320.223798 473.988013,329.775256 C474.430217,339.326714 462.490706,346 462.490706,346 L451,323.566808 Z" id="Path" fill="#FBBEBE" fill-rule="nonzero"></path>
                <path d="M339.74907,212.815551 C338.804846,213.241312 337.83957,213.617866 336.857056,213.943725 C329.929075,216.355684 322.943255,218.787093 315.648952,219.668885 C308.35465,220.550676 300.700452,219.772625 294.338021,216.102817 C293.669972,215.722139 293.026058,215.299878 292.410012,214.838484 C291.703075,200.574214 290,186.634131 290,186.634131 C290,186.634131 345.912274,160.050718 339.485576,181.122936 C336.92775,189.636112 337.795354,201.592164 339.74907,212.815551 Z" id="Path" fill="#000000" fill-rule="nonzero" opacity="0.1"></path>
                <path d="M305.8643,124.430118 C303.991234,124.926265 301.994554,124.505056 300.479488,123.294169 L301.825691,125.170108 C300.219825,125.355977 298.614033,124.821516 297.437586,123.709602 C297.315508,125.38892 297.384994,127.076728 297.644695,128.740236 C295.417193,128.847989 293.224077,128.157751 291.457338,126.792894 C291.386632,127.992276 292.068543,129.108818 293.165981,129.590576 C288.537268,129.036008 284.216582,132.011038 283.069458,136.542588 L286.44791,136.854163 C283.79278,137.422886 281.409774,138.881156 279.691006,140.98902 C278.655465,142.287248 277.865865,143.94898 278.318914,145.532819 C278.771963,147.116657 280.959543,148.129275 282.150415,146.999817 C278.721366,151.104532 277.276293,156.519278 278.202416,161.793128 C278.509607,162.903296 278.610526,164.060674 278.500134,165.207468 C278.286554,166.278506 277.613452,167.206739 277.276901,168.251813 C276.629688,170.147227 277.244541,172.204918 277.82056,174.09384 L280.855989,184.10318 C281.956251,187.718746 283.050041,191.340803 284.486854,194.839528 C285.504297,197.051559 286.369277,199.33097 287.075706,201.661718 C287.891195,204.80343 287.923555,208.243735 289.664558,210.989488 C290.857749,212.717387 292.452744,214.12769 294.311548,215.09838 C300.712484,218.772366 308.44668,219.551303 315.773131,218.668508 C323.099582,217.785713 330.128315,215.351535 337.098799,212.93683 C338.647305,212.469029 340.133737,211.81517 341.525736,210.989488 C346.347473,207.821811 347.421847,201.343652 348.321473,195.637938 C349.324653,189.27662 350.664384,182.928284 353.039656,176.943451 C354.45058,173.379815 356.275721,169.764249 355.965059,165.947458 C355.570259,160.877877 351.570482,156.768984 350.580246,151.783788 C350.248757,150.117403 350.264182,148.400295 350.625551,146.740171 C350.93265,145.751068 351.104649,144.724779 351.13685,143.689335 C351.026823,141.599187 349.318181,139.989384 347.713093,138.645718 C344.231087,135.729032 340.636897,132.97246 336.930524,130.376004 C336.742832,129.077775 338.503252,128.519537 339.299324,127.493937 C340.425474,126.046412 339.260491,123.748548 337.551849,123.07347 C335.843206,122.398391 333.927456,122.839789 332.14762,123.287677 C332.385747,121.411353 331.366944,119.600928 329.642275,118.835651 C327.917606,118.070374 325.89656,118.531946 324.67231,119.970704 C323.709558,117.756707 321.621075,116.244204 319.222776,116.02409 C314.931754,115.686551 314.847616,118.97756 312.103433,120.788588 C309.35925,122.599616 307.094004,120.210876 304.98409,118.471251 C304.19507,120.472624 304.530606,122.744145 305.8643,124.430118 L305.8643,124.430118 Z" id="Path" fill="#3F3D56" fill-rule="nonzero"></path>
                <path d="M468,342.541081 C468,342.541081 467.423919,343.918188 466.362375,345.912395 C464.75662,348.980468 462.801713,351.851297 460.536833,354.467346 L460.362067,354.655723 L459.31347,354.655723 L421.939381,355 L421.046132,355 L420.936094,354.870084 L413.68653,346.237184 L410.954998,342.982795 L410.84496,342.846383 L410.611939,342.57356 L410.482482,342.417662 L410.314189,342.216292 L405,335.889396 L406.941847,327.769663 L410.249461,314.089537 L410.333607,313.758251 L410.98089,311.159937 L411.44046,309.211201 L412.980992,302.858322 L418.262817,281 L427.648413,285.87184 L437.545361,303.410463 L442.85955,312.829354 L445.772321,312.829354 C446.322511,312.829354 447.584712,313.894663 448.853385,315.122367 C449.306483,315.557584 449.759581,316.018785 450.14795,316.421524 C451.300113,317.616749 452.212781,318.643083 452.212781,318.643083 C452.212781,318.643083 456.93147,318.747015 458.200144,322.475597 C458.265648,322.65603 458.319696,322.840447 458.361964,323.027739 C458.783093,324.493317 459.331052,325.919154 459.999589,327.288975 C460.834583,329.114291 461.883181,331.186447 462.944724,333.258603 C464.918936,337.058638 466.925511,340.676791 467.663413,341.98894 L467.754033,342.151334 L468,342.541081 Z" id="Path" fill="#FFFFFF" fill-rule="nonzero"></path>
                <path d="M411.98233,313.573482 L411.917618,314.50405 L411.917618,314.569125 L411.807608,316.065844 L410.946938,328.111176 L409.905075,342.622841 L409.607399,346.709534 L408.960279,355.455578 L408.960279,355.566205 L339.718424,356.216952 L226.090597,357.453372 L226.090597,358 L226,358 L226,357.453372 L226,357.271163 L226.291204,347.926432 L226.847727,329.666462 L227.326596,314.185184 L227.371895,312.642913 C227.429112,310.761619 228.253329,308.986817 229.651094,307.735071 C231.048858,306.483324 232.897096,305.864851 234.762007,306.024813 C237.816414,306.285112 241.78326,306.603978 246.526651,306.942367 L248.468012,307.085531 C275.860607,308.998728 326.484817,311.471568 377.568481,308.387026 C378.6427,308.328458 379.723391,308.263384 380.804082,308.185294 C388.724832,307.684218 396.639112,307.039979 404.475737,306.233052 C406.481178,306.021755 408.476698,306.714486 409.925439,308.124879 C411.37418,309.535271 412.127353,311.518475 411.98233,313.540944 L411.98233,313.573482 Z" id="Path" fill="#000000" fill-rule="nonzero" opacity="0.1"></path>
                <path d="M226,356.974183 L226,356.432017 L339.694574,355.199236 L408.965269,354.553801 L409.159486,354.553801 L409.159486,354.444077 L409.806876,345.769428 L410.085254,341.896817 L411.146973,327.303528 L411.982105,315.750239 L411.982105,315.466247 C412.020706,314.933887 411.996807,314.398854 411.910893,313.872022 C411.914514,313.850659 411.914514,313.828842 411.910893,313.807479 C411.73305,312.718194 411.288307,311.689505 410.616113,310.81266 C409.166889,308.959882 406.861295,307.983817 404.517702,308.230919 C396.677813,309.031259 388.760238,309.670239 380.836188,310.167225 C379.755047,310.244677 378.673907,310.30922 377.59924,310.367309 C326.494299,313.3944 275.849005,310.941747 248.445,309.076439 L246.502831,308.934443 C241.757465,308.598817 237.788966,308.289008 234.733287,308.02438 C231.251621,307.731473 228.110574,310.108007 227.456627,313.529942 C227.39126,313.879374 227.352307,314.233207 227.340097,314.588455 L226.899872,328.891299 L226.297799,347.008664 L226.012948,356.277113 L226.012948,356.457834 L226.012948,357 L226,356.974183 Z" id="Path" fill="#3F3D56" fill-rule="nonzero"></path>
                <path d="M411.989588,317.627468 L411.194042,327.617222 L410.010425,342.507363 L409.712904,346.234786 L409.066118,354.582388 L409.027311,354.999443 L409.027311,355.110223 L409.027311,355.110223 L408.930293,356.074661 L409.00144,355.110223 L408.813872,355.110223 L339.607842,355.76187 L226,357 L226,356.817539 L226.316925,347.459883 L226.96371,329.174659 L227.377653,317.021436 C227.419009,315.616735 228.164064,314.328845 229.356816,313.600287 C230.089217,313.148042 230.945566,312.942616 231.801664,313.013805 C233.159914,313.124585 234.82862,313.254914 236.775444,313.398277 C239.938224,313.63287 243.838339,313.906562 248.378772,314.193286 C256.786981,314.727637 267.33605,315.301087 279.424468,315.770273 C313.057305,317.073568 358.461635,317.510171 401.58928,313.704551 C403.529636,313.535123 405.53467,313.346145 407.49443,313.157167 C408.270151,313.079226 409.051713,313.228567 409.745243,313.587254 C409.941687,313.685839 410.128001,313.803707 410.301478,313.939144 C410.864523,314.350186 411.310583,314.902965 411.595049,315.542196 C411.661035,315.669374 411.715166,315.802446 411.756745,315.939701 C411.951041,316.479598 412.030374,317.054651 411.989588,317.627468 Z" id="Path" fill="#000000" fill-rule="nonzero" opacity="0.1"></path>
                <path d="M193,327 L193,329.014737 C193.000724,330.510076 192.105317,331.872128 190.699809,332.513684 L164.346197,333 C162.915159,332.369654 161.998316,330.994936 162,329.482105 L162,327.587368 L193,327 Z" id="Path" fill="#000000" fill-rule="nonzero" opacity="0.1"></path>
                <polygon id="Path" fill="#3F3D56" fill-rule="nonzero" points="193 333.379524 159 334 159 328.620476 193 328"></polygon>
                <polygon id="Path" fill="#000000" fill-rule="nonzero" opacity="0.1" points="193 333.379524 159 334 159 328.620476 193 328"></polygon>
                <polygon id="Path" fill="#3F3D56" fill-rule="nonzero" points="195 333.379524 161 334 161 328.620476 195 328"></polygon>
                <g id="Group" opacity="0.1" transform="translate(277.000000, 119.000000)" fill="#000000" fill-rule="nonzero">
                    <path d="M29.4129032,3.01948052 C28.7826136,2.19516507 28.3638197,1.22724555 28.1935484,0.201298701 C28.0380663,1.20423536 28.131146,2.23029919 28.4645161,3.18831169 C28.7847449,3.15856543 29.1019648,3.10209417 29.4129032,3.01948052 Z" id="Path"></path>
                    <path d="M21.2193548,7.33116883 C21.0976875,6.53510764 21.018006,5.73311802 20.9806452,4.92857143 C20.9806452,5.72727273 20.9806452,6.53246753 20.9806452,7.33766234 L21.2193548,7.33116883 Z" id="Path"></path>
                    <path d="M73.8,29 C73.8357099,28.4214824 73.9133356,27.8463607 74.0322581,27.2792208 C74.3374267,26.2915267 74.5109855,25.2674315 74.5483871,24.2337662 C74.5339169,24.0017458 74.4993776,23.7714367 74.4451613,23.5454545 C74.3354839,24.1428571 74.1612903,24.7402597 74.0322581,25.3311688 C73.7745717,26.5357629 73.6962962,27.7722298 73.8,29 Z" id="Path"></path>
                    <path d="M60.3806452,8.93506494 L61.083871,9.44805195 C61.6767365,9.01644046 62.2314834,8.53413112 62.7419355,8.00649351 C63.2359774,7.31875557 63.3293571,6.41846829 62.9870968,5.64285714 C62.9228332,5.79109116 62.8404791,5.93069348 62.7419355,6.05844156 C61.9483871,7.08441558 60.1935484,7.64935065 60.3806452,8.93506494 Z" id="Path"></path>
                    <path d="M7.36774194,15.1818182 C7.13242496,15.6554121 6.94440604,16.151351 6.80645161,16.6623377 C7.81568826,16.0953372 8.90272987,15.6817673 10.0322581,15.4350649 L7.36774194,15.1818182 Z" id="Path"></path>
                    <path d="M16.2645161,8.11688312 C15.8407318,7.88189962 15.4352676,7.61489991 15.0516129,7.31818182 C15.0353695,7.57506868 15.0549137,7.83297968 15.1096774,8.08441558 C15.4948865,8.06593132 15.8809328,8.07678475 16.2645161,8.11688312 Z" id="Path"></path>
                    <path d="M79.3419355,46.3766234 C79.0774194,49.525974 77.6193548,52.5584416 76.4387097,55.5454545 C74.0709677,61.5324675 72.7354839,67.8831169 71.7354839,74.2532468 C70.8387097,79.961039 69.8,86.4415584 64.9612903,89.6038961 C63.5787192,90.4352379 62.0984609,91.0896466 60.5548387,91.5519481 C53.6,93.974026 46.5870968,96.4025974 39.2645161,97.2857143 C31.9419355,98.1688312 24.2580645,97.3961039 17.8709677,93.7207792 C16.0190877,92.7482239 14.429479,91.3376998 13.2387097,89.6103896 C11.516129,86.8636364 11.483871,83.4220779 10.6580645,80.2792208 C9.95390362,77.9455032 9.09166852,75.6630997 8.07741935,73.4480519 C6.6516129,69.9545455 5.55483871,66.3051948 4.46451613,62.7142857 C3.45376344,59.3766234 2.44516129,56.0367965 1.43870968,52.6948052 C1.10723355,51.6894776 0.861188066,50.657631 0.703225806,49.6103896 C0.451612903,51.2727273 0.941935484,53.012987 1.43870968,54.6428571 C2.44516129,57.9891775 3.45376344,61.3290043 4.46451613,64.6623377 C5.55483871,68.2792208 6.6516129,71.9025974 8.07741935,75.3961039 C9.09166852,77.6111516 9.95390362,79.8935551 10.6580645,82.2272727 C11.4709677,85.3701299 11.5032258,88.8116883 13.2387097,91.5584416 C14.429479,93.2857518 16.0190877,94.6962758 17.8709677,95.6688312 C24.2580645,99.3441558 31.9612903,100.116883 39.2645161,99.2337662 C46.5677419,98.3506494 53.5741935,95.9220779 60.5548387,93.5 C62.0984609,93.0376986 63.5787192,92.3832899 64.9612903,91.5519481 C69.7677419,88.3896104 70.8387097,81.9090909 71.7354839,76.2012987 C72.7354839,69.8311688 74.0709677,63.4805195 76.4387097,57.4935065 C77.8451613,53.9350649 79.6645161,50.3181818 79.3548387,46.4935065 C79.3548387,46.4545455 79.3419355,46.4155844 79.3419355,46.3766234 Z" id="Path"></path>
                    <path d="M2.12258065,43.8636364 C2.12258065,43.8636364 2.12258065,43.8181818 2.12258065,43.7922078 C2.23896866,42.6471814 2.13825992,41.4903246 1.82580645,40.3831169 C1.69709428,39.6705249 1.61305729,38.9504877 1.57419355,38.2272727 C1.49991824,39.6004292 1.58435495,40.977622 1.82580645,42.3311688 C1.92903226,42.8376623 2.04516129,43.3506494 2.12258065,43.8636364 Z" id="Path"></path>
                    <path d="M4.09032258,27.9805195 C4.58651431,27.1415271 5.14965991,26.3445291 5.77419355,25.5974026 C4.59354839,26.7337662 2.41290323,25.7207792 1.95483871,24.1428571 C1.78600325,24.7810902 1.78600325,25.452676 1.95483871,26.0909091 C2.27819811,27.0608362 3.09317264,27.7819769 4.09032258,27.9805195 L4.09032258,27.9805195 Z" id="Path"></path>
                </g>
                <path d="M442,313 C442,313 444.25,320.352638 442,326.746236 C439.75,333.139834 442,313 442,313 Z" id="Path" fill="#000000" fill-rule="nonzero" opacity="0.1"></path>
                <path d="M450.802127,321 C450.802127,321 451.698021,330.21726 449.677207,331.852377 C447.656393,333.487494 450.802127,321 450.802127,321 Z" id="Path" fill="#000000" fill-rule="nonzero" opacity="0.1"></path>
                <line x1="129" y1="222" x2="195" y2="221" id="Path" stroke="#FFFFFF" stroke-width="2"></line>
                <line x1="129" y1="229.995" x2="195" y2="229.005" id="Path" stroke="#FFFFFF" stroke-width="2"></line>
                <line x1="129" y1="238" x2="195" y2="237" id="Path" stroke="#FFFFFF" stroke-width="2"></line>
            </g>
        </g>
    </g>
</svg>