<?xml version="1.0" encoding="UTF-8"?>
<svg width="1024px" height="1024px" viewBox="0 0 1024 1024" version="1.1" xmlns="http://www.w3.org/2000/svg" xmlns:xlink="http://www.w3.org/1999/xlink">
    <!-- Generator: Sketch 64 (93537) - https://sketch.com -->
    <title>Combined Shape</title>
    <desc>Created with Sketch.</desc>
    <g id="Logo" stroke="none" stroke-width="1" fill="none" fill-rule="evenodd">
        <g id="Artboard" fill="#212F3D" stroke="#979797">
            <g id="components/@logo">
                <path d="M958,0 C994.450793,-6.69590214e-15 1024,29.5492065 1024,66 L1024,958 C1024,994.450793 994.450793,1024 958,1024 L66,1024 C29.5492065,1024 4.46393476e-15,994.450793 0,958 L0,66 C-4.46393476e-15,29.5492065 29.5492065,6.69590214e-15 66,0 L958,0 Z M269.421875,227.25 L102.625,227.25 L102.625,796 L174.5,796 L174.5,563.96875 L288.171875,563.96875 L399.890625,796 L476.0625,796 L476.453125,791.3125 L355.75,548.34375 C379.1875,538.1875 379.1875,538.1875 398.71875,523.734375 C418.25,509.28125 418.25,509.28125 432.3125,490.53125 C446.375,471.78125 446.375,471.78125 454.382812,448.734375 C462.390625,425.6875 462.390625,425.6875 462.390625,397.953125 C462.390625,354.984375 462.390625,354.984375 447.351562,323.148438 C432.3125,291.3125 432.3125,291.3125 405.945312,270.21875 C379.578125,249.125 379.578125,249.125 344.421875,238.578125 C309.941707,228.234075 309.941707,228.234075 270.952593,227.28366 L269.421875,227.25 Z M704.1875,227.25 L572.546875,227.25 L572.546875,796 L704.1875,796 C763.5625,795.609375 763.5625,795.609375 810.242188,776.273438 C856.921875,756.9375 856.921875,756.9375 889.148438,722.367188 C921.375,687.796875 921.375,687.796875 938.367188,639.554688 C955.126605,591.973352 955.126605,591.973352 955.736183,534.322116 L955.75,532.71875 L955.75,490.921875 C955.359375,432.328125 955.359375,432.328125 938.367188,384.085938 C921.375,335.84375 921.375,335.84375 889.148438,301.273438 C856.921875,266.703125 856.921875,266.703125 810.242188,247.367188 C764.124906,228.264213 764.124906,228.264213 705.61638,227.271519 L704.1875,227.25 Z M704.1875,286.625 C750.28125,287.40625 750.28125,287.40625 783.875,303.03125 C817.46875,318.65625 817.46875,318.65625 839.34375,345.804688 C861.21875,372.953125 861.21875,372.953125 872.15625,409.867188 C882.898438,446.12207 882.898438,446.12207 883.467061,488.594131 L883.484375,490.140625 L883.484375,532.71875 C883.09375,576.078125 883.09375,576.078125 872.351562,613.1875 C861.609375,650.296875 861.609375,650.296875 839.539062,677.640625 C817.46875,704.984375 817.46875,704.984375 783.875,720.804688 C750.28125,736.625 750.28125,736.625 704.1875,737.015625 L645.984375,737.015625 L645.984375,286.625 L704.1875,286.625 Z M269.421875,286.625 C295.59375,287.015625 295.59375,287.015625 317.664062,294.046875 C339.734375,301.078125 339.734375,301.078125 355.75,314.945312 C371.765625,328.8125 371.765625,328.8125 380.75,349.320312 C389.734375,369.828125 389.734375,369.828125 389.734375,397.171875 C389.734375,422.953125 389.734375,422.953125 380.359375,442.679688 C370.984375,462.40625 370.984375,462.40625 354.773438,476.078125 C338.5625,489.75 338.5625,489.75 317.078125,496.976562 C295.59375,504.203125 295.59375,504.203125 271.375,504.59375 L174.5,504.59375 L174.5,286.625 L269.421875,286.625 Z" id="Combined-Shape"></path>
            </g>
        </g>
    </g>
</svg>